<?xml version="1.0" encoding="utf-8"?>
<!-- Generator: Adobe Illustrator 21.0.2, SVG Export Plug-In . SVG Version: 6.00 Build 0)  -->
<!DOCTYPE svg PUBLIC "-//W3C//DTD SVG 1.1//EN" "http://www.w3.org/Graphics/SVG/1.1/DTD/svg11.dtd">
<svg version="1.1" id="Layer_1" xmlns="http://www.w3.org/2000/svg" xmlns:xlink="http://www.w3.org/1999/xlink" x="0px" y="0px"
	 viewBox="0 0 256 256" style="enable-background:new 0 0 256 256;" xml:space="preserve">
<style type="text/css">
	.st0{fill:#E9473F;}
	.st1{fill:#FFFFFF;}
</style>
<rect y="0" class="st0" width="256" height="256"/>
<g>
	<path class="st1" d="M66,164.6V76.1H50.6V180h39v-15.4H66z M82.9,173.4H57.2V82.7h2.2v84.6v3.8h3.8h19.7V173.4z"/>
	<path class="st1" d="M72.7,96v64.4h15.4V96H72.7z M81.5,153.7h-2.2v-51.1h2.2V153.7z"/>
	<path class="st1" d="M72.4,76.1v15.4h22.2V180H110V91.5h95.3V76.1H72.4z M198.7,84.9h-91.5h-3.8v3.8v84.7h-2.2V88.7v-3.8h-3.8H79
		v-2.2h18.4h9.8h91.5V84.9z"/>
	<path class="st1" d="M115.3,96v15.4h10.2V180H141v-68.6h8.5V96H115.3z M142.9,104.8h-1.3h-7.2v3.8v64.8h-2.2v-64.8v-3.8h-3.8h-6.5
		v-2.2h6.5h13.2h1.3V104.8z"/>
	<path class="st1" d="M170.5,164.6V95.9H155V180h50v-15.4H170.5z M198.4,173.4h-36.7v-70.9h2.2v64.9v3.8h3.8h30.7V173.4z"/>
	<path class="st1" d="M205.1,111.5V96H176v64.3h29.1v-15.6h-13.5v-9.2h9.5v-15.6h-9.5v-8.4H205.1z M188.7,126.6h4.2v2.2h-4.2h-3.8
		v3.9v14.7v3.9h3.8h9.7v2.2h-15.7v-51h15.7v2.2h-9.7h-3.8v3.8v14.1v3.8H188.7z"/>
</g>
<g>
	<path class="st1" d="M210.3,83.8h-1v-6.9h-1.5V76h3.9v0.9h-1.5V83.8z"/>
	<path class="st1" d="M217.6,83.8h-0.9l0.1-7l-1.2,7h-1.2l-1.2-7l0.2,7h-0.9V76h1.5l1.1,7l1.1-7h1.5V83.8z"/>
</g>
</svg>
